<svg width="800" height="800" viewBox="0 0 800 800" fill="none" xmlns="http://www.w3.org/2000/svg">
<path fill-rule="evenodd" clip-rule="evenodd" d="M633.333 766.667H366.667C348.257 766.667 333.333 751.743 333.333 733.333C333.333 714.923 348.257 700 366.667 700H633.333C651.743 700 666.667 685.077 666.667 666.667V133.333C666.667 114.924 651.743 99.9999 633.333 99.9999H366.667C348.257 99.9999 333.333 85.0763 333.333 66.6666C333.333 48.2573 348.257 33.3333 366.667 33.3333H633.333C688.563 33.3333 733.333 78.1049 733.333 133.333V666.667C733.333 721.897 688.563 766.667 633.333 766.667Z" fill="#3B82F6"/>
<path fill-rule="evenodd" clip-rule="evenodd" d="M82.9537 443.663C61.2374 418.603 61.2374 381.397 82.954 356.34L222.177 195.696C262.595 149.06 339.223 177.644 339.223 239.358V300H539.223C576.043 300 605.89 329.848 605.89 366.667V433.333C605.89 470.153 576.043 500 539.223 500H339.223V560.643C339.223 622.357 262.595 650.94 222.177 604.303L82.9537 443.663ZM152.253 378.17C141.395 390.697 141.395 409.303 152.253 421.83L272.557 560.643V483.333C272.557 455.72 294.942 433.333 322.557 433.333H539.223V366.667H322.557C294.942 366.667 272.557 344.28 272.557 316.667V239.358L152.253 378.17Z" fill="#3B82F6"/>
</svg>
