<svg width="800" height="800" viewBox="0 0 800 800" fill="none" xmlns="http://www.w3.org/2000/svg">
<g clip-path="url(#clip0_21_30)">
<path d="M176.587 0C114.124 0.012184 63.3081 50.8359 63.3081 113.295V686.709C63.3081 749.172 114.124 799.996 176.591 800.004H711.308C725.328 800.004 736.692 788.64 736.692 774.621V686.709V598.797V201.207V25.3834C736.692 11.3636 725.328 0 711.308 0H176.587ZM176.591 50.7668H685.925V201.207V573.409H176.587C153.49 573.413 132.002 580.379 114.075 592.291V113.295C114.075 78.8226 142.123 50.7709 176.591 50.7668ZM685.925 749.233H176.595C142.123 749.229 114.075 721.177 114.075 686.705C114.075 652.232 142.119 624.18 176.591 624.176H685.925V661.321H286.248C272.228 661.321 260.864 672.685 260.864 686.705C260.864 700.724 272.228 712.088 286.248 712.088H685.925V749.233Z" fill="#3B82F6"/>
<path d="M298.493 356.18V452.288C298.493 466.308 309.856 477.671 323.876 477.671H476.12C490.14 477.671 501.503 466.308 501.503 452.288V356.184C535.042 342.721 558.289 309.832 558.289 272.24C558.289 223.768 519.962 184.085 472.026 181.9C455.127 159.538 428.797 146.196 400.002 146.196C371.195 146.196 344.869 159.538 327.974 181.9C280.034 184.085 241.707 223.772 241.707 272.24C241.707 309.836 264.958 342.721 298.493 356.18ZM332.145 232.573C334.066 232.573 336.02 232.715 337.965 232.999C348.874 234.612 359.543 228.995 364.412 219.118C371.158 205.455 384.8 196.963 400.01 196.963C415.216 196.963 428.858 205.455 435.612 219.126C440.486 229.003 451.203 234.604 462.064 232.999C463.997 232.715 465.946 232.573 467.867 232.573C489.742 232.573 507.538 250.37 507.538 272.244C507.538 292.165 492.662 309.077 472.936 311.578C460.256 313.187 450.749 323.978 450.749 336.759V426.904H349.26V338.436C349.26 338.408 349.264 338.375 349.264 338.351C350.104 324.977 340.402 313.252 327.109 311.574C307.363 309.085 292.474 292.177 292.474 272.24C292.474 250.366 310.271 232.573 332.145 232.573Z" fill="#3B82F6"/>
</g>
<defs>
<clipPath id="clip0_21_30">
<rect width="800" height="800" fill="white"/>
</clipPath>
</defs>
</svg>
